<?xml version="1.0" encoding="utf-8"?>
<!-- Generator: Adobe Illustrator 18.1.1, SVG Export Plug-In . SVG Version: 6.00 Build 0)  -->
<svg version="1.1" id="Layer_1" xmlns="http://www.w3.org/2000/svg" xmlns:xlink="http://www.w3.org/1999/xlink" x="0px" y="0px"
	 viewBox="0 0 250 250" enable-background="new 0 0 250 250" xml:space="preserve">
<circle fill="#86A6A1" cx="126.8" cy="124.7" r="111.6"/>
<g>
	<g id="XMLID_2_">
		<g>
			<path fill="#FFFFFF" d="M164.3,79.7c5,0.2,10,0.1,15.2,0.1c-4.1-7.6-24.4-19.6-30.4-19.5c3.9,5.5,8,11.3,12.2,17
				C162,78.3,163.2,79.6,164.3,79.7z M169.5,154.5c6,0,11.7-0.1,17.5,0.1c2.7,0.1,4.2-1,4.9-3.4c1.7-5.7,3.4-11.5,5.1-17.3
				c0.7-2.3-0.1-3.5-2.7-3.5c-6,0.1-12.1-0.1-18.1,0.1c-1.1,0-2.9,1.3-3,2.3C171.8,139.8,170.8,146.8,169.5,154.5z M175.6,117.7
				c1.7,0.3,3.4,0,5.1,0c5.4,0,10.7,0,16.5,0c-0.8-8.6-3.3-16.4-7.2-23.7c-0.3-0.6-1.1-1.2-1.7-1.2c-6.5-0.1-13-0.1-19.4-0.1
				c1.4,8,2.6,15.6,4.1,23.2C173.2,116.7,174.7,117.5,175.6,117.7z M191.3,73.6c33.1,39.1,20.6,98.8-25.3,121.6
				c-12,6-24.7,9-36.1,9.2c-42.9,0-77.8-29.6-83.2-69.8c-3.9-29.3,6.7-53.7,29.5-72.2C111.1,34.3,162.6,39.5,191.3,73.6z
				 M95.8,112.3c-0.6,4.1,0.6,5.3,4.9,5.4c5.8,0.1,11.5,0.3,17.3,0.1c0.8,0,2.2-1.5,2.2-2.3c0.3-3.3,0.1-6.6,0.1-10
				c0-3.2-0.1-6.4,0-9.6c0.1-2.4-0.9-3.3-3.3-3.3c-4.7,0.1-9.4-0.2-14,0.2c-1.3,0.1-3.3,1.5-3.6,2.6C98,100.9,96.7,106.6,95.8,112.3
				z M94.7,130.5c1.6,7.8,2.9,14.9,4.5,21.9c0.2,0.9,1.9,2,2.9,2c5.1,0.2,10.3,0.2,15.5,0c1,0,2.6-1.6,2.7-2.5
				c0.2-6.3,0.2-12.5,0-18.8c0-0.9-1.4-2.5-2.2-2.5C110.7,130.4,103.4,130.5,94.7,130.5z M75.9,167.8c7.6,9.7,16.9,15.9,27.6,19.7
				c-3.7-6.1-7.4-12.1-11.2-18.1c-0.4-0.7-1.2-1.5-1.8-1.6C85.6,167.8,80.8,167.8,75.9,167.8z M64.6,152c0.4,1.1,2.1,2.3,3.2,2.4
				c5.3,0.3,10.6,0.1,15.8,0.1c1.8,0,2.8-0.6,2.4-2.7c-1.1-6.2-2.2-12.3-3.2-18.5c-0.3-2.1-1.3-3-3.4-2.9c-2.9,0.1-5.9,0-8.8,0
				c-3.1,0-6.1,0-9.2,0c-2.1,0-3.1,1-2.5,3C60.7,139.7,62.6,145.9,64.6,152z M136,154.5c5.7-0.1,11.3,0.1,17-0.1
				c1.2,0,3.1-1.1,3.4-2c1.6-6.3,2.8-12.7,4-19.1c0.4-2-0.7-2.9-2.8-2.9c-3.7,0-7.4,0-11.1,0c-3.6,0-7.1,0.1-10.7,0
				c-2.2,0-3.1,0.9-3,3.1c0.1,5.9,0.1,11.8,0,17.7C132.7,153.6,133.6,154.6,136,154.5z M134.3,79.6c4.3,0.1,8.6,0.1,12.9,0.1
				c0.2-0.4,0.4-0.9,0.6-1.3c-4.7-4.9-9.3-9.8-14-14.7c-0.3,0.2-0.7,0.4-1,0.6c0,4.5-0.1,9,0.1,13.5
				C132.9,78.4,133.8,79.6,134.3,79.6z M119,184.7c0.4-0.2,0.7-0.5,1.1-0.7c0-5.3,0-10.6,0-15.6c-4.7,0-9.1,0-13.5,0
				c-0.2,0.4-0.5,0.8-0.7,1.2C110.2,174.7,114.6,179.7,119,184.7z M148.5,188.9c12.1-3.7,23-10.2,32.4-20.8c-6,0-11-0.2-16,0.1
				c-1.1,0.1-2.4,1.5-3.2,2.5C157.2,176.8,152.8,183,148.5,188.9z M158.3,117.8c0.7,0,2-1.8,1.9-2.6c-1.3-6.9-2.9-13.7-4.6-20.4
				c-0.2-0.9-1.7-2-2.6-2c-5.9-0.2-11.8-0.2-17.7,0c-0.8,0-2.3,1.3-2.4,2c-0.2,7.6-0.1,15.2-0.1,23.1
				C141.7,117.9,150,117.9,158.3,117.8z M148.5,168.2c-5.5,0-10.2,0-15.4,0c0,5.2,0,10.5,0,16.2C139.4,179.9,144.5,175,148.5,168.2z
				 M120.2,77.3c0.3-4.1,0.1-8.3,0.1-13.4c-6.1,4.8-10.3,9.6-14,15.9c4.4,0,8,0.2,11.5-0.1C118.8,79.6,120.2,78.2,120.2,77.3z
				 M93,78.1c3.7-5.5,7.2-11.1,11.2-17.3C93.3,65,84,70.6,75.9,79.8c5.4,0,10,0.1,14.5-0.1C91.3,79.7,92.5,78.9,93,78.1z M82.6,116
				c1.4-7.5,2.5-15,3.8-23.2c-6.3,0-12.4-0.1-18.5,0.1c-1,0-2.3,1.5-2.7,2.5c-2.1,5.6-3.9,11.4-5.7,17.1c-0.5,1.6-0.5,3.4-0.7,5.4
				c7.6,0,14.5,0.1,21.4-0.1C81.1,117.7,82.5,116.7,82.6,116z"/>
		</g>
		<g>
		</g>
	</g>
</g>
</svg>
