<svg xmlns="http://www.w3.org/2000/svg" viewBox="0 0 250 250" enable-background="new 0 0 250 250"><circle fill="#86A6A1" cx="126.8" cy="124.7" r="111.6"/><g><path fill="#fff" d="M164.3 79.7c5 .2 10 .1 15.2.1-4.1-7.6-24.4-19.6-30.4-19.5 3.9 5.5 8 11.3 12.2 17 .7 1 1.9 2.3 3 2.4zm5.2 74.8c6 0 11.7-.1 17.5.1 2.7.1 4.2-1 4.9-3.4 1.7-5.7 3.4-11.5 5.1-17.3.7-2.3-.1-3.5-2.7-3.5-6 .1-12.1-.1-18.1.1-1.1 0-2.9 1.3-3 2.3-1.4 7-2.4 14-3.7 21.7zm6.1-36.8c1.7.3 3.4 0 5.1 0h16.5c-.8-8.6-3.3-16.4-7.2-23.7-.3-.6-1.1-1.2-1.7-1.2-6.5-.1-13-.1-19.4-.1 1.4 8 2.6 15.6 4.1 23.2.2.8 1.7 1.6 2.6 1.8zm15.7-44.1c33.1 39.1 20.6 98.8-25.3 121.6-12 6-24.7 9-36.1 9.2-42.9 0-77.8-29.6-83.2-69.8-3.9-29.3 6.7-53.7 29.5-72.2 34.9-28.1 86.4-22.9 115.1 11.2zm-95.5 38.7c-.6 4.1.6 5.3 4.9 5.4 5.8.1 11.5.3 17.3.1.8 0 2.2-1.5 2.2-2.3.3-3.3.1-6.6.1-10 0-3.2-.1-6.4 0-9.6.1-2.4-.9-3.3-3.3-3.3-4.7.1-9.4-.2-14 .2-1.3.1-3.3 1.5-3.6 2.6-1.4 5.5-2.7 11.2-3.6 16.9zm-1.1 18.2c1.6 7.8 2.9 14.9 4.5 21.9.2.9 1.9 2 2.9 2 5.1.2 10.3.2 15.5 0 1 0 2.6-1.6 2.7-2.5.2-6.3.2-12.5 0-18.8 0-.9-1.4-2.5-2.2-2.5-7.4-.2-14.7-.1-23.4-.1zm-18.8 37.3c7.6 9.7 16.9 15.9 27.6 19.7-3.7-6.1-7.4-12.1-11.2-18.1-.4-.7-1.2-1.5-1.8-1.6h-14.6zm-11.3-15.8c.4 1.1 2.1 2.3 3.2 2.4 5.3.3 10.6.1 15.8.1 1.8 0 2.8-.6 2.4-2.7-1.1-6.2-2.2-12.3-3.2-18.5-.3-2.1-1.3-3-3.4-2.9-2.9.1-5.9 0-8.8 0h-9.2c-2.1 0-3.1 1-2.5 3 1.8 6.3 3.7 12.5 5.7 18.6zm71.4 2.5c5.7-.1 11.3.1 17-.1 1.2 0 3.1-1.1 3.4-2 1.6-6.3 2.8-12.7 4-19.1.4-2-.7-2.9-2.8-2.9h-11.1c-3.6 0-7.1.1-10.7 0-2.2 0-3.1.9-3 3.1.1 5.9.1 11.8 0 17.7-.1 2.4.8 3.4 3.2 3.3zm-1.7-74.9c4.3.1 8.6.1 12.9.1l.6-1.3-14-14.7-1 .6c0 4.5-.1 9 .1 13.5 0 .6.9 1.8 1.4 1.8zm-15.3 105.1l1.1-.7v-15.6h-13.5l-.7 1.2c4.3 5.1 8.7 10.1 13.1 15.1zm29.5 4.2c12.1-3.7 23-10.2 32.4-20.8-6 0-11-.2-16 .1-1.1.1-2.4 1.5-3.2 2.5-4.5 6.1-8.9 12.3-13.2 18.2zm9.8-71.1c.7 0 2-1.8 1.9-2.6-1.3-6.9-2.9-13.7-4.6-20.4-.2-.9-1.7-2-2.6-2-5.9-.2-11.8-.2-17.7 0-.8 0-2.3 1.3-2.4 2-.2 7.6-.1 15.2-.1 23.1 8.9 0 17.2 0 25.5-.1zm-9.8 50.4h-15.4v16.2c6.3-4.5 11.4-9.4 15.4-16.2zm-28.3-90.9c.3-4.1.1-8.3.1-13.4-6.1 4.8-10.3 9.6-14 15.9 4.4 0 8 .2 11.5-.1 1-.1 2.4-1.5 2.4-2.4zm-27.2.8c3.7-5.5 7.2-11.1 11.2-17.3-10.9 4.2-20.2 9.8-28.3 19 5.4 0 10 .1 14.5-.1.9 0 2.1-.8 2.6-1.6zm-10.4 37.9c1.4-7.5 2.5-15 3.8-23.2-6.3 0-12.4-.1-18.5.1-1 0-2.3 1.5-2.7 2.5-2.1 5.6-3.9 11.4-5.7 17.1-.5 1.6-.5 3.4-.7 5.4 7.6 0 14.5.1 21.4-.1.9-.1 2.3-1.1 2.4-1.8z"/></g></svg>