<?xml version="1.0" encoding="utf-8"?>
<!-- Generator: Adobe Illustrator 18.1.1, SVG Export Plug-In . SVG Version: 6.00 Build 0)  -->
<svg version="1.1" id="Layer_1" xmlns="http://www.w3.org/2000/svg" xmlns:xlink="http://www.w3.org/1999/xlink" x="0px" y="0px"
	 viewBox="0 0 320 27.5" enable-background="new 0 0 320 27.5" xml:space="preserve">
<g>
	<g id="XMLID_3_">
		<g>
			<path fill="#5C5B5B" d="M306.4,10.4c0-0.7,0-1.4,0-2c-0.1,0-0.1,0-0.2,0c-0.4,0-0.8,0-1.2,0c-0.4,0-0.7,0-1.1,0.1
				c-0.9,0.2-1.4,0.8-1.4,1.7c0,0.5,0,1,0,1.5c0,0.1,0,0.2,0,0.3c-0.4,0-0.8,0-1.1,0c0,0.6,0,1.3,0,1.9c0.4,0,0.8,0,1.1,0.1
				c0,1.8,0,3.7,0,5.5c0.8,0,1.5,0,2.3,0c0-1.9,0-3.7,0-5.5c0.5,0,1,0,1.5,0c0.1-0.6,0.1-1.3,0.2-1.9c-0.6,0-1.1,0-1.7,0
				c0-0.4,0-0.8,0-1.2c0-0.2,0.1-0.3,0.3-0.3c0.4,0,0.8,0,1.2,0C306.3,10.4,306.3,10.4,306.4,10.4z M303.8,5.3
				c4.5-0.1,8.6,3.7,8.5,8.6c0,4.9-4.1,8.5-8.7,8.4c-4.5-0.1-8.5-3.8-8.4-8.7C295.4,9,299.3,5.3,303.8,5.3z"/>
		</g>
		<g>
		</g>
	</g>
</g>
</svg>
