<svg xmlns="http://www.w3.org/2000/svg" viewBox="0 0 250 250" enable-background="new 0 0 250 250"><circle fill="#86A6A1" cx="125" cy="117.1" r="109"/><g><g fill="#fff"><path d="M77.1 87.4c1.5 2.8 3.2 5.3 4.3 8.2 1.9 5.2 1.5 10.4-.8 15.4-.4.8-.8 1.1-1.7 1.1h-41c-1 0-1.5-.3-1.8-1.2-.7-2.4-1.4-4.7-2-7.1v-3.6l.3-.7c1.1-7.2 5-12.5 11.3-16.1 1.8-1 3.9-1.6 5.5-2.8 18.4-14.3 39.4-22.1 62.5-24.2l5.8-.6h10.9l5.8.6c23.1 2.1 44 10 62.5 24.2 2 1.5 4.5 2.3 6.6 3.5 6.5 3.9 10.2 11 10.2 18.2 0 2.9-.6 5.8-1.9 8.5-.4.9-.9 1.3-1.9 1.3h-40.7c-1.1 0-1.6-.4-2-1.3-3.3-7.9-2.2-15.1 2.9-21.9.3-.4.6-.7.8-1.1 0 0 0-.1.1-.3-14-7.2-28.9-11-44.6-11.5l-3-.1c-16.9 0-33.1 3.8-48.1 11.5zM109.8 126.1c8.5 7.4 21.1 7.6 29.8.3 7.8-6.5 9.3-17.6 3.4-25.8-4.4-6.2-10.7-8.9-16.8-9.1-4.8 0-8.1.7-11.3 2.2-13.2 6.1-15.8 23-5.1 32.4zm15.5-47.8c8.3 0 16.2 2.8 23.6 8.3 9.1 6.7 14.4 15.9 16.7 26.9.9 4.5 1 9.1.6 13.7 0 .6.2 1.4.7 1.7 3.7 2.7 5.9 6.3 5.9 10.9.1 8.5.1 17 0 25.6-.1 7.1-6 13-14 13h-.1c-11.2-.1-22.5 0-33.7 0h-33.6c-4.7 0-8.7-1.6-11.6-5.4-1.8-2.4-2.7-5.2-2.7-8.2 0-8.5-.1-17 .1-25.6.1-4.3 2.2-7.6 5.6-10.1.8-.6 1-1.1.9-2.1-2.1-20.2 9.3-40 28.7-46.5 4.3-1.5 8.7-2.2 12.9-2.2z"/></g></g></svg>