<?xml version="1.0" encoding="utf-8"?>
<!-- Generator: Adobe Illustrator 18.1.1, SVG Export Plug-In . SVG Version: 6.00 Build 0)  -->
<svg version="1.1" id="Layer_1" xmlns="http://www.w3.org/2000/svg" xmlns:xlink="http://www.w3.org/1999/xlink" x="0px" y="0px"
	 viewBox="0 0 250 250" enable-background="new 0 0 250 250" xml:space="preserve">
<circle fill="#86A6A1" cx="125" cy="117.1" r="109"/>
<g>
	<g id="XMLID_1_">
		<g>
			<path fill="#FFFFFF" d="M77.1,87.4c1.5,2.8,3.2,5.3,4.3,8.2c1.9,5.2,1.5,10.4-0.8,15.4c-0.4,0.8-0.8,1.1-1.7,1.1
				c-13.7,0-27.3,0-41,0c-1,0-1.5-0.3-1.8-1.2c-0.7-2.4-1.4-4.7-2-7.1c0-1.2,0-2.4,0-3.6c0.1-0.2,0.2-0.5,0.3-0.7
				c1.1-7.2,5-12.5,11.3-16.1c1.8-1,3.9-1.6,5.5-2.8c18.4-14.3,39.4-22.1,62.5-24.2c1.9-0.2,3.9-0.4,5.8-0.6c3.6,0,7.3,0,10.9,0
				c1.9,0.2,3.9,0.4,5.8,0.6c23.1,2.1,44,10,62.5,24.2c2,1.5,4.5,2.3,6.6,3.5c6.5,3.9,10.2,11,10.2,18.2c0,2.9-0.6,5.8-1.9,8.5
				c-0.4,0.9-0.9,1.3-1.9,1.3c-13.6,0-27.1,0-40.7,0c-1.1,0-1.6-0.4-2-1.3c-3.3-7.9-2.2-15.1,2.9-21.9c0.3-0.4,0.6-0.7,0.8-1.1
				c0,0,0-0.1,0.1-0.3c-14-7.2-28.9-11-44.6-11.5c-1,0-2-0.1-3-0.1C108.3,75.9,92.1,79.7,77.1,87.4z"/>
			<path fill="#FFFFFF" d="M109.8,126.1c8.5,7.4,21.1,7.6,29.8,0.3c7.8-6.5,9.3-17.6,3.4-25.8c-4.4-6.2-10.7-8.9-16.8-9.1
				c-4.8,0-8.1,0.7-11.3,2.2C101.7,99.8,99.1,116.7,109.8,126.1z M125.3,78.3c8.3,0,16.2,2.8,23.6,8.3c9.1,6.7,14.4,15.9,16.7,26.9
				c0.9,4.5,1,9.1,0.6,13.7c0,0.6,0.2,1.4,0.7,1.7c3.7,2.7,5.9,6.3,5.9,10.9c0.1,8.5,0.1,17,0,25.6c-0.1,7.1-6,13-14,13
				c0,0,0,0-0.1,0c-11.2-0.1-22.5,0-33.7,0c-11.2,0-22.4,0-33.6,0c-4.7,0-8.7-1.6-11.6-5.4c-1.8-2.4-2.7-5.2-2.7-8.2
				c0-8.5-0.1-17,0.1-25.6c0.1-4.3,2.2-7.6,5.6-10.1c0.8-0.6,1-1.1,0.9-2.1c-2.1-20.2,9.3-40,28.7-46.5
				C116.7,79,121.1,78.3,125.3,78.3z"/>
		</g>
		<g>
		</g>
	</g>
</g>
</svg>
